<?xml version="1.0" encoding="UTF-8" standalone="no"?>
<svg
   width="528.13904"
   height="528.13916"
   viewBox="0 0 528.13904 528.13916"
   version="1.1"
   xmlns="http://www.w3.org/2000/svg">
  <g transform="translate(-1655.9303,-5330.0547)">
    <rect
       style="fill:#242424;fill-opacity:1;fill-rule:evenodd;stroke:none;"
       width="528.1391"
       height="528.1391"
       x="1655.9303"
       y="5330.0547"
       ry="116.38815" />
    <g transform="translate(1740.79985, 5414.92425) scale(1.4)" fill="#f2f2f2">
      <path d="m127.98 12.07c-10.316 25.309-16.543 41.855-28.031 66.41 7.043 7.4609 15.691 16.156 29.734 25.977-15.098-6.207-25.395-12.445-33.094-18.918-14.703 30.68-37.742 74.391-84.492 158.39 36.746-21.219 65.23-34.293 91.773-39.289-1.1406-4.8945-1.7852-10.195-1.7422-15.734l0.042969-1.1719c0.58203-23.551 12.828-41.645 27.336-40.418 14.508 1.2266 25.781 21.316 25.199 44.867-0.10938 4.4219-0.60938 8.6914-1.4805 12.641 26.258 5.1328 54.438 18.18 90.684 39.105-7.1484-13.156-13.527-25.016-19.621-36.316-9.5938-7.4336-19.605-17.117-40.023-27.594 14.035 3.6406 24.082 7.8516 31.914 12.555-61.941-115.32-66.957-130.66-88.199-180.5z" fill-rule="evenodd"/>
    </g>
  </g>
</svg>
